# xmcd CD database file
#
# Track frame offsets:
#	150
#	21474
#	39237
#	64615
#	90261
#	115153
#	139612
#	152641
#	174087
#	189900
#	217059
#
# Disc length: 3040 seconds
#
# Revision: 2
# Processed by: cddbd v1.5PL3 Copyright (c) Steve Scherf et al.
# Submitted via: CDex 1.51
#
DISCID=840bde0b
DTITLE=Sojiro - Kidou KTCR-1695
DYEAR=1991
DGENRE=New Age
TTITLE0=(Chinese Title)
TTITLE1=(Chinese Title)
TTITLE2=(Chinese Title)
TTITLE3=(Chinese Title)
TTITLE4=(Chinese Title)
TTITLE5=(Chinese Title)
TTITLE6=(Chinese Title)
TTITLE7=(Chinese Title)
TTITLE8=(Chinese Title)
TTITLE9=(Chinese Title)
TTITLE10=(Chinese Title)
EXTD=YEAR: 1991
EXTT0=
EXTT1=
EXTT2=
EXTT3=
EXTT4=
EXTT5=
EXTT6=
EXTT7=
EXTT8=
EXTT9=
EXTT10=
PLAYORDER=
